<?xml version="1.0" encoding="UTF-8" standalone="no"?>
<svg
   width="250"
   height="62"
   viewBox="0 0 250 62"
   fill="none"
   version="1.1"
   id="svg16"
   sodipodi:docname="logo.svg"
   inkscape:version="1.1.2 (0a00cf5339, 2022-02-04)"
   xmlns:inkscape="http://www.inkscape.org/namespaces/inkscape"
   xmlns:sodipodi="http://sodipodi.sourceforge.net/DTD/sodipodi-0.dtd"
   xmlns="http://www.w3.org/2000/svg"
   xmlns:svg="http://www.w3.org/2000/svg">
  <defs
     id="defs20">
    <rect
       x="74.154221"
       y="11.780047"
       width="130.68932"
       height="42.073338"
       id="rect12625" />
  </defs>
  <sodipodi:namedview
     id="namedview18"
     pagecolor="#ffffff"
     bordercolor="#666666"
     borderopacity="1.0"
     inkscape:pageshadow="2"
     inkscape:pageopacity="0.0"
     inkscape:pagecheckerboard="0"
     showgrid="false"
     inkscape:snap-text-baseline="false"
     inkscape:zoom="8.9678568"
     inkscape:cx="52.465155"
     inkscape:cy="27.821586"
     inkscape:window-width="1850"
     inkscape:window-height="1016"
     inkscape:window-x="70"
     inkscape:window-y="27"
     inkscape:window-maximized="1"
     inkscape:current-layer="svg16"
     width="250px" />
  <circle
     cx="31"
     cy="31"
     fill="#09b850"
     id="circle2"
     r="31"
     style="fill:#008000;fill-opacity:1" />
  <path
     d="m 13.61555,35.7151 c 2.7124,0 4.911,-2.1988 4.911,-4.911 0,-2.7122 -2.1986,-4.911 -4.911,-4.911 -2.7122,0 -4.9108,2.1988 -4.9108,4.911 0,2.7122 2.1986,4.911 4.9108,4.911 z"
     fill="#ffffff"
     id="path4"
     style="fill:#ffffff;fill-opacity:1;stroke-width:2" />
  <text
     xml:space="preserve"
     id="text12623"
     style="font-weight:bold;font-size:32px;line-height:1.25;font-family:'Noto Sans Mono CJK HK';-inkscape-font-specification:'Noto Sans Mono CJK HK, Bold';font-variant-ligatures:none;white-space:pre;shape-inside:url(#rect12625)" />
  <g
     aria-label="acada"
     id="text90239"
     style="font-weight:bold;font-size:48px;line-height:1.25;font-family:'Noto Sans Mono CJK HK';-inkscape-font-specification:'Noto Sans Mono CJK HK, Bold';font-variant-ligatures:none;fill:#000000"
     transform="matrix(1.2,0,0,1.2,-11.986017,-7.6696406)">
    <path
       d="m 84.050203,20.044203 q 3.024,0 5.328,1.056 2.304,1.056 3.552,2.928 1.248,1.824 1.248,4.176 v 16.176 q 0,0.24 -0.192,0.432 -0.144,0.144 -0.384,0.144 h -4.416 q -0.24,0 -0.432,-0.144 -0.144,-0.192 -0.144,-0.432 v -1.536 q 0,-0.144 -0.096,-0.144 -0.096,-0.048 -0.192,0.048 -2.352,2.592 -6.816,2.592 -3.6,0 -5.952,-1.824 -2.304,-1.824 -2.304,-5.424 0,-3.744 2.592,-5.808 2.64,-2.112 7.392,-2.112 h 5.136 q 0.24,0 0.24,-0.24 v -1.152 q 0,-1.872 -1.104,-2.88 -1.104,-1.056 -3.312,-1.056 -1.824,0 -2.976,0.672 -1.104,0.624 -1.392,1.776 -0.144,0.576 -0.672,0.48 l -4.656,-0.576 q -0.24,-0.048 -0.432,-0.144 -0.144,-0.144 -0.096,-0.336 0.384,-2.928 3.12,-4.8 2.784,-1.872 6.96,-1.872 z m -1.152,20.88 q 2.352,0 4.032,-1.248 1.68,-1.248 1.68,-3.168 v -2.256 q 0,-0.24 -0.24,-0.24 h -4.032 q -2.544,0 -4.032,0.96 -1.44,0.96 -1.44,2.736 0,1.536 1.104,2.4 1.152,0.816 2.928,0.816 z"
       style="font-weight:600;font-family:Barlow;-inkscape-font-specification:'Barlow, Semi-Bold'"
       id="path68368" />
    <path
       d="m 109.97017,45.340203 q -3.696,0 -6.384,-1.872 -2.688,-1.92 -3.743998,-5.136 -0.768,-2.16 -0.768,-5.76 0,-3.456 0.768,-5.664 1.007998,-3.168 3.695998,-4.992 2.736,-1.872 6.432,-1.872 3.744,0 6.528,1.872 2.784,1.872 3.696,4.704 0.24,0.768 0.336,1.536 v 0.096 q 0,0.48 -0.528,0.576 l -4.32,0.624 h -0.096 q -0.432,0 -0.576,-0.48 0,-0.24 -0.048,-0.384 -0.096,-0.384 -0.192,-0.672 -0.432,-1.344 -1.728,-2.208 -1.296,-0.864 -3.072,-0.864 -1.824,0 -3.12,0.96 -1.248,0.912 -1.68,2.544 -0.48,1.536 -0.48,4.272 0,2.64 0.432,4.272 0.48,1.68 1.728,2.688 1.248,0.96 3.12,0.96 1.824,0 3.12,-0.912 1.344,-0.96 1.728,-2.544 0.048,-0.096 0.048,-0.24 0.048,-0.048 0.048,-0.144 0.144,-0.576 0.672,-0.48 l 4.32,0.672 q 0.24,0.048 0.384,0.24 0.192,0.144 0.144,0.432 -0.144,0.768 -0.24,1.104 -0.912,3.072 -3.696,4.896 -2.784,1.776 -6.528,1.776 z"
       style="font-weight:600;font-family:Barlow;-inkscape-font-specification:'Barlow, Semi-Bold'"
       id="path68370" />
    <path
       d="m 134.59409,20.044203 q 3.024,0 5.328,1.056 2.304,1.056 3.552,2.928 1.248,1.824 1.248,4.176 v 16.176 q 0,0.24 -0.192,0.432 -0.144,0.144 -0.384,0.144 h -4.416 q -0.24,0 -0.432,-0.144 -0.144,-0.192 -0.144,-0.432 v -1.536 q 0,-0.144 -0.096,-0.144 -0.096,-0.048 -0.192,0.048 -2.352,2.592 -6.816,2.592 -3.6,0 -5.952,-1.824 -2.304,-1.824 -2.304,-5.424 0,-3.744 2.592,-5.808 2.64,-2.112 7.392,-2.112 h 5.136 q 0.24,0 0.24,-0.24 v -1.152 q 0,-1.872 -1.104,-2.88 -1.104,-1.056 -3.312,-1.056 -1.824,0 -2.976,0.672 -1.104,0.624 -1.392,1.776 -0.144,0.576 -0.672,0.48 l -4.656,-0.576 q -0.24,-0.048 -0.432,-0.144 -0.144,-0.144 -0.096,-0.336 0.384,-2.928 3.12,-4.8 2.784,-1.872 6.96,-1.872 z m -1.152,20.88 q 2.352,0 4.032,-1.248 1.68,-1.248 1.68,-3.168 v -2.256 q 0,-0.24 -0.24,-0.24 h -4.032 q -2.544,0 -4.032,0.96 -1.44,0.96 -1.44,2.736 0,1.536 1.104,2.4 1.152,0.816 2.928,0.816 z"
       style="font-weight:600;font-family:Barlow;-inkscape-font-specification:'Barlow, Semi-Bold'"
       id="path68372" />
    <path
       d="m 165.50606,11.932203 q 0,-0.24 0.144,-0.384 0.192,-0.192 0.432,-0.192 h 4.416 q 0.24,0 0.384,0.192 0.192,0.144 0.192,0.384 v 32.448 q 0,0.24 -0.192,0.432 -0.144,0.144 -0.384,0.144 h -4.416 q -0.24,0 -0.432,-0.144 -0.144,-0.192 -0.144,-0.432 v -1.44 q 0,-0.144 -0.096,-0.192 -0.096,-0.048 -0.192,0.096 -2.112,2.496 -5.52,2.496 -3.408,0 -5.76,-1.776 -2.352,-1.776 -3.408,-4.944 -0.864,-2.688 -0.864,-6 0,-3.408 0.816,-5.856 1.056,-3.168 3.408,-4.944 2.352,-1.776 5.904,-1.776 3.312,0 5.424,2.4 0.096,0.096 0.192,0.096 0.096,-0.048 0.096,-0.192 z m -1.152,26.304 q 1.104,-1.968 1.104,-5.568 0,-3.744 -1.2,-5.712 -1.296,-2.112 -3.648,-2.112 -2.448,0 -3.84,2.016 -1.44,2.112 -1.44,5.856 0,3.36 1.152,5.52 1.344,2.304 4.08,2.304 2.448,0 3.792,-2.304 z"
       style="font-weight:600;font-family:Barlow;-inkscape-font-specification:'Barlow, Semi-Bold'"
       id="path68374" />
    <path
       d="m 186.48197,20.044203 q 3.024,0 5.328,1.056 2.304,1.056 3.552,2.928 1.248,1.824 1.248,4.176 v 16.176 q 0,0.24 -0.192,0.432 -0.144,0.144 -0.384,0.144 h -4.416 q -0.24,0 -0.432,-0.144 -0.144,-0.192 -0.144,-0.432 v -1.536 q 0,-0.144 -0.096,-0.144 -0.096,-0.048 -0.192,0.048 -2.352,2.592 -6.816,2.592 -3.6,0 -5.952,-1.824 -2.304,-1.824 -2.304,-5.424 0,-3.744 2.592,-5.808 2.64,-2.112 7.392,-2.112 h 5.136 q 0.24,0 0.24,-0.24 v -1.152 q 0,-1.872 -1.104,-2.88 -1.104,-1.056 -3.312,-1.056 -1.824,0 -2.976,0.672 -1.104,0.624 -1.392,1.776 -0.144,0.576 -0.672,0.48 l -4.656,-0.576 q -0.24,-0.048 -0.432,-0.144 -0.144,-0.144 -0.096,-0.336 0.384,-2.928 3.12,-4.8 2.784,-1.872 6.96,-1.872 z m -1.152,20.88 q 2.352,0 4.032,-1.248 1.68,-1.248 1.68,-3.168 v -2.256 q 0,-0.24 -0.24,-0.24 h -4.032 q -2.544,0 -4.032,0.96 -1.44,0.96 -1.44,2.736 0,1.536 1.104,2.4 1.152,0.816 2.928,0.816 z"
       style="font-weight:600;font-family:Barlow;-inkscape-font-specification:'Barlow, Semi-Bold'"
       id="path68376" />
  </g>
</svg>
